<svg xmlns="http://www.w3.org/2000/svg" xmlns:xlink="http://www.w3.org/1999/xlink" width="19.3330078125" height="16.3333740234375" viewBox="0 0 19.3330078125 16.3333740234375" fill="none">
<path    stroke="rgba(51, 51, 51, 1)" stroke-width="1.3333333333333333" stroke-linejoin="round" stroke-linecap="round"  d="M4.95117 0.666687C4.09424 0.666687 2.80884 1.04169 2.80884 2.54169C2.80884 4.04169 2.80884 4.7917 2.80884 5.9167C2.80884 7.0417 0.666504 7.7917 0.666504 7.7917C0.666504 7.7917 2.80884 8.5417 2.80884 9.66671C2.80884 10.7917 2.80884 12.2917 2.80884 13.7917C2.80884 15.2917 4.09424 15.6667 4.95117 15.6667">
</path>
<path    stroke="rgba(51, 51, 51, 1)" stroke-width="1.3333333333333333" stroke-linejoin="round" stroke-linecap="round"  d="M14.3818 0.666687C15.2388 0.666687 16.5242 1.04169 16.5242 2.54169C16.5242 4.04169 16.5242 4.7917 16.5242 5.9167C16.5242 7.0417 18.6665 7.7917 18.6665 7.7917C18.6665 7.7917 16.5242 8.5417 16.5242 9.66671C16.5242 10.7917 16.5242 12.2917 16.5242 13.7917C16.5242 15.2917 15.2388 15.6667 14.3818 15.6667">
</path>
</svg>
