<svg xmlns="http://www.w3.org/2000/svg" xmlns:xlink="http://www.w3.org/1999/xlink" width="14" height="14" viewBox="0 0 14 14" fill="none">
<path    stroke="rgba(51, 51, 51, 1)" stroke-width="1.11" stroke-linejoin="round" stroke-linecap="round"  d="M6.40141 1.16663L6.40141 2.91663M2.93209 2.04163L1.16675 2.04163C1.16675 2.04163 1.16675 4.66663 1.16675 6.12496C1.16675 7.58329 2.33341 9.33329 4.66675 9.33329C7.00008 9.33329 8.16675 7.58329 8.16675 6.12496C8.16675 4.66663 8.16675 2.04163 8.16675 2.04163L6.40141 2.04163L2.93209 2.04163ZM2.93209 1.16663L2.93209 2.91663L2.93209 1.16663Z">
</path>
<path d="M11.6667 6.70833C12.311 6.70833 12.8333 6.18599 12.8333 5.54167C12.8333 4.89735 12.311 4.375 11.6667 4.375C11.0223 4.375 10.5 4.89735 10.5 5.54167C10.5 6.18599 11.0223 6.70833 11.6667 6.70833Z" stroke="rgba(51, 51, 51, 1)" stroke-width="1.11" stroke-linejoin="round" stroke-linecap="round" >
</path>
<path    stroke="rgba(51, 51, 51, 1)" stroke-width="1.11" stroke-linejoin="round" stroke-linecap="round"  d="M4.66675 9.33337C4.66675 11.2664 6.23376 12.8334 8.16675 12.8334C10.0997 12.8334 11.6667 11.2664 11.6667 9.33337L11.6667 6.70837">
</path>
</svg>
