<svg xmlns="http://www.w3.org/2000/svg" xmlns:xlink="http://www.w3.org/1999/xlink" width="14.44342041015625" height="14.443359375" viewBox="0 0 14.44342041015625 14.443359375" fill="none">
<path    stroke="rgba(51, 51, 51, 1)" stroke-width="1.11" stroke-linejoin="round" stroke-linecap="round"  d="M1.76666 11.0552C2.00103 11.3881 2.26511 11.6986 2.55504 11.9828C2.86107 12.2828 3.19591 12.5535 3.55504 12.7905">
</path>
<path    stroke="rgba(51, 51, 51, 1)" stroke-width="1.11" stroke-linejoin="round" stroke-linecap="round"  d="M8.51119 13.7637C8.09399 13.8454 7.66286 13.8883 7.22169 13.8883C6.78056 13.8883 6.34939 13.8454 5.93219 13.7637">
</path>
<path    stroke="rgba(51, 51, 51, 1)" stroke-width="1.11" stroke-linejoin="round" stroke-linecap="round"  d="M13.7381 8.63597C13.8366 8.18017 13.8884 7.70697 13.8884 7.2217C13.8884 6.74654 13.8387 6.28297 13.7442 5.83594">
</path>
<path    stroke="rgba(51, 51, 51, 1)" stroke-width="1.11" stroke-linejoin="round" stroke-linecap="round"  d="M12.6767 3.38862C12.4424 3.05572 12.1783 2.74522 11.8884 2.46102C11.5823 2.161 11.2475 1.89026 10.8884 1.65332">
</path>
<path    stroke="rgba(51, 51, 51, 1)" stroke-width="1.11" stroke-linejoin="round" stroke-linecap="round"  d="M5.94012 0.678252C6.35486 0.597489 6.78336 0.555176 7.22172 0.555176C7.66012 0.555176 8.08862 0.597489 8.50336 0.678252">
</path>
<path    stroke="rgba(51, 51, 51, 1)" stroke-width="1.11" stroke-linejoin="round" stroke-linecap="round"  d="M1.76666 3.38862C2.00103 3.05572 2.26511 2.74522 2.55504 2.46102C2.86107 2.161 3.19591 1.89026 3.55504 1.65332">
</path>
<path    stroke="rgba(51, 51, 51, 1)" stroke-width="1.11" stroke-linejoin="round" stroke-linecap="round"  d="M12.7218 10.9863C12.4874 11.3193 12.2233 11.6298 11.9334 11.914C11.6274 12.214 11.2925 12.4847 10.9334 12.7217">
</path>
<path    stroke="rgba(51, 51, 51, 1)" stroke-width="1.11" stroke-linejoin="round" stroke-linecap="round"  d="M4.55499 7.22168L0.554993 7.22168">
</path>
<path    stroke="rgba(51, 51, 51, 1)" stroke-width="1.11" stroke-linejoin="round" stroke-linecap="round"  d="M2.55499 11.8885L5.33603 9.10742">
</path>
<path    stroke="rgba(51, 51, 51, 1)" stroke-width="1.11" stroke-linejoin="round" stroke-linecap="round"  d="M7.22174 9.88818L7.22174 13.8882">
</path>
<path    stroke="rgba(51, 51, 51, 1)" stroke-width="1.11" stroke-linejoin="round" stroke-linecap="round"  d="M11.8883 11.8885L9.10724 9.10742">
</path>
<path    stroke="rgba(51, 51, 51, 1)" stroke-width="1.11" stroke-linejoin="round" stroke-linecap="round"  d="M9.88837 7.22168L13.8884 7.22168">
</path>
<path    stroke="rgba(51, 51, 51, 1)" stroke-width="1.11" stroke-linejoin="round" stroke-linecap="round"  d="M11.8883 2.55518L9.10724 5.33621">
</path>
<path    stroke="rgba(51, 51, 51, 1)" stroke-width="1.11" stroke-linejoin="round" stroke-linecap="round"  d="M7.22174 4.55518L7.22174 0.555176">
</path>
<path    stroke="rgba(51, 51, 51, 1)" stroke-width="1.11" stroke-linejoin="round" stroke-linecap="round"  d="M2.55499 2.55518L5.33603 5.33621">
</path>
<path    stroke="rgba(51, 51, 51, 1)" stroke-width="1.11" stroke-linejoin="round" stroke-linecap="round"  d="M0.699213 5.83594C0.604706 6.28297 0.554993 6.74654 0.554993 7.2217C0.554993 7.69687 0.604706 8.16044 0.699213 8.60747">
</path>
<path d="M7.22166 9.88851C8.69443 9.88851 9.88833 8.69461 9.88833 7.22184C9.88833 5.74908 8.69443 4.55518 7.22166 4.55518C5.74889 4.55518 4.55499 5.74908 4.55499 7.22184C4.55499 8.69461 5.74889 9.88851 7.22166 9.88851Z" stroke="rgba(51, 51, 51, 1)" stroke-width="1.11" stroke-linejoin="round" stroke-linecap="round" >
</path>
</svg>
