<svg xmlns="http://www.w3.org/2000/svg" xmlns:xlink="http://www.w3.org/1999/xlink" width="16" height="16" viewBox="0 0 16 16" fill="none">
<path d="M1.66669 2L13 2C13 2 14.3334 2.66667 14.3334 4.33333C14.3334 6 13 6.66667 13 6.66667L1.66669 6.66667C1.66669 6.66667 3.00002 6 3.00002 4.33333C3.00002 2.66667 1.66669 2 1.66669 2Z" stroke="rgba(51, 51, 51, 1)" stroke-width="1.11" stroke-linejoin="round" stroke-linecap="round" >
</path>
<path d="M14.3334 9.33331L3.00002 9.33331C3.00002 9.33331 1.66669 9.99998 1.66669 11.6666C1.66669 13.3333 3.00002 14 3.00002 14L14.3334 14C14.3334 14 13 13.3333 13 11.6666C13 9.99998 14.3334 9.33331 14.3334 9.33331Z" stroke="rgba(51, 51, 51, 1)" stroke-width="1.11" stroke-linejoin="round" stroke-linecap="round" >
</path>
</svg>
