<svg xmlns="http://www.w3.org/2000/svg" xmlns:xlink="http://www.w3.org/1999/xlink" width="14" height="14" viewBox="0 0 14 14" fill="none">
<path d="M5.25 1.75L2.33333 1.75C2.01117 1.75 1.75 2.01117 1.75 2.33333L1.75 5.25C1.75 5.57218 2.01117 5.83333 2.33333 5.83333L5.25 5.83333C5.57218 5.83333 5.83333 5.57218 5.83333 5.25L5.83333 2.33333C5.83333 2.01117 5.57218 1.75 5.25 1.75Z" stroke="rgba(51, 51, 51, 1)" stroke-width="1.11" stroke-linejoin="round"  >
</path>
<path d="M5.25 8.16663L2.33333 8.16663C2.01117 8.16663 1.75 8.42778 1.75 8.74996L1.75 11.6666C1.75 11.9888 2.01117 12.25 2.33333 12.25L5.25 12.25C5.57218 12.25 5.83333 11.9888 5.83333 11.6666L5.83333 8.74996C5.83333 8.42778 5.57218 8.16663 5.25 8.16663Z" stroke="rgba(51, 51, 51, 1)" stroke-width="1.11" stroke-linejoin="round"  >
</path>
<path d="M11.375 8.1637L8.45833 8.1637C8.13616 8.1637 7.875 8.42485 7.875 8.74703L7.875 11.6637C7.875 11.9859 8.13616 12.247 8.45833 12.247L11.375 12.247C11.6972 12.247 11.9583 11.9859 11.9583 11.6637L11.9583 8.74703C11.9583 8.42485 11.6972 8.1637 11.375 8.1637Z" stroke="rgba(51, 51, 51, 1)" stroke-width="1.11" stroke-linejoin="round"  >
</path>
<path d="M11.375 1.75L8.45833 1.75C8.13616 1.75 7.875 2.01116 7.875 2.33333L7.875 5.25C7.875 5.57218 8.13616 5.83333 8.45833 5.83333L11.375 5.83333C11.6972 5.83333 11.9583 5.57218 11.9583 5.25L11.9583 2.33333C11.9583 2.01116 11.6972 1.75 11.375 1.75Z" stroke="rgba(51, 51, 51, 1)" stroke-width="1.11" stroke-linejoin="round"  >
</path>
</svg>
