<svg xmlns="http://www.w3.org/2000/svg" xmlns:xlink="http://www.w3.org/1999/xlink" width="16" height="16" viewBox="0 0 16 16" fill="none">
<path d="M7.99984 6.66667C9.2885 6.66667 10.3332 5.622 10.3332 4.33333C10.3332 3.04467 9.2885 2 7.99984 2C6.71117 2 5.6665 3.04467 5.6665 4.33333C5.6665 5.622 6.71117 6.66667 7.99984 6.66667Z" stroke="rgba(51, 51, 51, 1)" stroke-width="1.111111111111111" stroke-linejoin="round" stroke-linecap="round" >
</path>
<path d="M2 13.6002L2 14.0002L14 14.0002L14 13.6002C14 12.1067 14 11.36 13.7094 10.7895C13.4537 10.2878 13.0457 9.8798 12.544 9.62413C11.9735 9.3335 11.2268 9.3335 9.73333 9.3335L6.26667 9.3335C4.7732 9.3335 4.02647 9.3335 3.45603 9.62413C2.95426 9.8798 2.54631 10.2878 2.29065 10.7895C2 11.36 2 12.1067 2 13.6002Z" stroke="rgba(51, 51, 51, 1)" stroke-width="1.111111111111111" stroke-linejoin="round" stroke-linecap="round" >
</path>
</svg>
