<svg xmlns="http://www.w3.org/2000/svg" xmlns:xlink="http://www.w3.org/1999/xlink" width="14" height="14" viewBox="0 0 14 14" fill="none">
<path   fill="rgba(51, 51, 51, 1)"  d="M2.99992 0.611626L10.9999 0.611626C11.6746 0.611626 12.2216 1.15858 12.2216 1.83329L12.2216 12.1666C12.2216 12.8413 11.6746 13.3883 10.9999 13.3883L2.99992 13.3883C2.32521 13.3883 1.77825 12.8413 1.77825 12.1666L1.77825 1.83329C1.77825 1.15858 2.32521 0.611626 2.99992 0.611626ZM2.99992 1.72163C2.93825 1.72163 2.88825 1.77162 2.88825 1.83329L2.88825 12.1666C2.88825 12.2283 2.93825 12.2783 2.99992 12.2783L10.9999 12.2783C11.0616 12.2783 11.1116 12.2283 11.1116 12.1666L11.1116 1.83329C11.1116 1.77162 11.0616 1.72163 10.9999 1.72163L2.99992 1.72163Z">
</path>
<path    stroke="rgba(51, 51, 51, 1)" stroke-width="1.11" stroke-linejoin="round" stroke-linecap="round"  d="M6.125 4.08337L9.625 4.08337">
</path>
<path    stroke="rgba(51, 51, 51, 1)" stroke-width="1.11" stroke-linejoin="round" stroke-linecap="round"  d="M6.125 7L9.625 7">
</path>
<path    stroke="rgba(51, 51, 51, 1)" stroke-width="1.11" stroke-linejoin="round" stroke-linecap="round"  d="M6.125 9.91663L9.625 9.91663">
</path>
<path d="M4.37508 4.66667C4.69726 4.66667 4.95841 4.40551 4.95841 4.08333C4.95841 3.76116 4.69726 3.5 4.37508 3.5C4.05291 3.5 3.79175 3.76116 3.79175 4.08333C3.79175 4.40551 4.05291 4.66667 4.37508 4.66667Z" fill-rule="evenodd"  fill="#333333" >
</path>
<path d="M4.37508 7.58329C4.69726 7.58329 4.95841 7.32213 4.95841 6.99996C4.95841 6.67778 4.69726 6.41663 4.37508 6.41663C4.05291 6.41663 3.79175 6.67778 3.79175 6.99996C3.79175 7.32213 4.05291 7.58329 4.37508 7.58329Z" fill-rule="evenodd"  fill="#333333" >
</path>
<path d="M4.37508 10.5C4.69726 10.5 4.95841 10.2389 4.95841 9.91671C4.95841 9.59453 4.69726 9.33337 4.37508 9.33337C4.05291 9.33337 3.79175 9.59453 3.79175 9.91671C3.79175 10.2389 4.05291 10.5 4.37508 10.5Z" fill-rule="evenodd"  fill="#333333" >
</path>
</svg>
