<svg xmlns="http://www.w3.org/2000/svg" xmlns:xlink="http://www.w3.org/1999/xlink" width="16" height="16" viewBox="0 0 16 16" fill="none">
<path d="M4 1.99992C4 1.63173 4.29847 1.33325 4.66667 1.33325L11.3333 1.33325C11.7015 1.33325 12 1.63173 12 1.99992L12 9.99992C12 10.3681 11.7015 10.6666 11.3333 10.6666L4.66667 10.6666C4.29847 10.6666 4 10.3681 4 9.99992L4 1.99992Z" stroke="rgba(51, 51, 51, 1)" stroke-width="1.11" stroke-linejoin="round"  >
</path>
<ellipse cx="5.999918699264526" cy="8.666666507720947" rx="0.6666667461395264" ry="0.6666665077209473"   fill="#333333" >
</ellipse>
<circle cx="9.999918460845947" cy="8.666666507720947" r="0.6666665077209473"   fill="#333333" >
</circle>
<path    stroke="rgba(51, 51, 51, 1)" stroke-width="1.11" stroke-linejoin="round" stroke-linecap="round"  d="M4 6.66675L12 6.66675">
</path>
<path    stroke="rgba(51, 51, 51, 1)" stroke-width="1.11" stroke-linejoin="round" stroke-linecap="round"  d="M7 12.6667L9 12.6667">
</path>
<path    stroke="rgba(51, 51, 51, 1)" stroke-width="1.11" stroke-linejoin="round" stroke-linecap="round"  d="M6 14.6667L10 14.6667">
</path>
<path    stroke="rgba(51, 51, 51, 1)" stroke-width="1.11"  stroke-linecap="round"  d="M5.66675 10.6667L3.66675 14.6667">
</path>
<path    stroke="rgba(51, 51, 51, 1)" stroke-width="1.11"  stroke-linecap="round"  d="M10.3333 10.6667L12.3333 14.6667">
</path>
<path    stroke="rgba(51, 51, 51, 1)" stroke-width="1.11" stroke-linejoin="round" stroke-linecap="round"  d="M12 5L12 8.33333">
</path>
<path    stroke="rgba(51, 51, 51, 1)" stroke-width="1.11" stroke-linejoin="round" stroke-linecap="round"  d="M4 5L4 8.33333">
</path>
</svg>
