<svg xmlns="http://www.w3.org/2000/svg" xmlns:xlink="http://www.w3.org/1999/xlink" width="60" height="60" viewBox="0 0 60 60" fill="none">
<g  clip-path="url(#clip-path-72_6)">
<rect  x="0" y="0" width="60" height="60" rx="30"    fill="#FFFFFF" fill-opacity="100">
</rect>
<g opacity="0.85">
<path d="M9.70332 28.4261C9.20353 28.8059 9.11114 29.5126 9.49697 30.0046L12.6407 34.0133L12.6407 34.0133L20.3253 43.8122C20.7111 44.3042 21.429 44.3952 21.9288 44.0154L37.313 32.3256C37.8128 31.9458 37.9052 31.2391 37.5194 30.7471L29.8348 20.948L29.8347 20.9481L26.6911 16.9395C26.3053 16.4475 25.5873 16.3565 25.0875 16.7363L22.2156 18.9186L21.1672 17.5817Q21.1217 17.5237 21.0707 17.4704Q21.0197 17.4171 20.9636 17.369Q20.9075 17.3208 20.8469 17.2784Q20.7862 17.2359 20.7217 17.1994Q20.6571 17.163 20.5892 17.133Q20.5213 17.103 20.4507 17.0796Q20.3802 17.0563 20.3076 17.0399Q20.2351 17.0235 20.1613 17.0142Q20.0874 17.0048 20.013 17.0027Q19.9386 17.0005 19.8643 17.0056Q19.79 17.0106 19.7166 17.0228Q19.6432 17.0349 19.5713 17.0541Q19.4995 17.0733 19.4299 17.0994Q19.3603 17.1254 19.2936 17.158Q19.2269 17.1906 19.1638 17.2295Q19.1007 17.2684 19.0417 17.3132Q18.923 17.4035 18.8245 17.5149Q18.726 17.6263 18.6516 17.7545Q18.5772 17.8827 18.5297 18.0228Q18.4823 18.1629 18.4637 18.3093Q18.4452 18.4544 18.4558 18.6002Q18.4663 18.746 18.5054 18.887Q18.5445 19.0281 18.6106 19.1589Q18.6768 19.2897 18.7675 19.4054L19.8158 20.7421L14.9755 24.42L13.9276 23.0837Q13.8821 23.0257 13.8311 22.9724Q13.7801 22.9191 13.724 22.871Q13.6679 22.8228 13.6072 22.7803Q13.5466 22.7379 13.4821 22.7014Q13.4175 22.665 13.3496 22.635Q13.2817 22.605 13.2111 22.5816Q13.1406 22.5583 13.068 22.5419Q12.9955 22.5255 12.9217 22.5162Q12.8478 22.5068 12.7734 22.5047Q12.699 22.5025 12.6247 22.5075Q12.5504 22.5126 12.477 22.5247Q12.4036 22.5369 12.3317 22.5561Q12.2599 22.5753 12.1903 22.6013Q12.1207 22.6274 12.054 22.66Q11.9873 22.6926 11.9242 22.7315Q11.8611 22.7704 11.8021 22.8152Q11.6834 22.9055 11.5849 23.0169Q11.4864 23.1283 11.412 23.2565Q11.3376 23.3847 11.2901 23.5248Q11.2427 23.6648 11.2241 23.8113Q11.2056 23.9564 11.2162 24.1022Q11.2267 24.248 11.2658 24.389Q11.3049 24.5301 11.371 24.6609Q11.4372 24.7917 11.5279 24.9074L12.5757 26.2435L9.70332 28.4261Z" fill-rule="evenodd"  fill="url(#linear_fill_33_42)" >
</path>
</g>
<path    stroke="url(#linear_border_33_38_0)" stroke-width="3"  stroke-linecap="round"  d="M28.5086 17.6875L28.5086 23.1875">
</path>
<path    stroke="url(#linear_border_33_39_0)" stroke-width="3"  stroke-linecap="round"  d="M39.5086 17.6875L39.5086 23.1875">
</path>
<g opacity="0.6">
<g filter="url(#filter_33_40)">
<path d="M29.9995 20.0253L29.9995 17.6874Q29.9995 17.6137 29.9923 17.5404Q29.9851 17.467 29.9708 17.3948Q29.9565 17.3225 29.9353 17.252Q29.914 17.1815 29.886 17.1134Q29.8579 17.0453 29.8234 16.9803Q29.7889 16.9153 29.7482 16.854Q29.7075 16.7928 29.661 16.7358Q29.6146 16.6788 29.5628 16.6267Q29.511 16.5746 29.4544 16.5279Q29.3978 16.4811 29.3369 16.4402Q29.276 16.3993 29.2114 16.3645Q29.1468 16.3298 29.0791 16.3016Q29.0115 16.2734 28.9414 16.252Q28.8713 16.2306 28.7994 16.2162Q28.7276 16.2018 28.6547 16.1946Q28.5818 16.1874 28.5086 16.1874Q28.4354 16.1874 28.3625 16.1946Q28.2896 16.2018 28.2177 16.2162Q28.1459 16.2306 28.0758 16.252Q28.0057 16.2734 27.9381 16.3016Q27.8704 16.3298 27.8058 16.3645Q27.7412 16.3993 27.6803 16.4402Q27.6194 16.4811 27.5628 16.5279Q27.5062 16.5746 27.4544 16.6267Q27.4026 16.6788 27.3562 16.7358Q27.3097 16.7928 27.269 16.854Q27.2283 16.9153 27.1938 16.9803Q27.1593 17.0453 27.1312 17.1134Q27.1032 17.1815 27.0819 17.252Q27.0607 17.3225 27.0464 17.3948Q27.0321 17.467 27.0249 17.5404Q27.0177 17.6137 27.0177 17.6874L27.0177 20.0253L22.1981 20.0253C21.4307 20.0253 20.8086 20.6969 20.8086 21.5253L20.8086 28.2753L20.9461 28.2753L20.9461 42.4369C20.9461 43.1963 21.5617 43.8119 22.3211 43.8119L45.6961 43.8119C46.4555 43.8119 47.0711 43.1963 47.0711 42.4369L47.0711 28.2753L47.2086 28.2753L47.2086 21.5253C47.2086 20.6969 46.5865 20.0253 45.8191 20.0253L40.9995 20.0253L40.9995 17.6874Q40.9995 17.6137 40.9923 17.5404Q40.9851 17.467 40.9708 17.3948Q40.9565 17.3225 40.9353 17.252Q40.914 17.1815 40.886 17.1134Q40.858 17.0453 40.8234 16.9803Q40.7889 16.9153 40.7482 16.854Q40.7075 16.7928 40.6611 16.7358Q40.6146 16.6788 40.5628 16.6267Q40.511 16.5746 40.4544 16.5279Q40.3978 16.4811 40.3369 16.4402Q40.276 16.3993 40.2114 16.3645Q40.1468 16.3298 40.0791 16.3016Q40.0115 16.2734 39.9414 16.252Q39.8713 16.2306 39.7995 16.2162Q39.7276 16.2018 39.6547 16.1946Q39.5819 16.1874 39.5086 16.1874Q39.4354 16.1874 39.3625 16.1946Q39.2896 16.2018 39.2178 16.2162Q39.1459 16.2306 39.0758 16.252Q39.0058 16.2734 38.9381 16.3016Q38.8704 16.3298 38.8058 16.3645Q38.7412 16.3993 38.6803 16.4402Q38.6194 16.4811 38.5628 16.5279Q38.5062 16.5746 38.4544 16.6267Q38.4026 16.6788 38.3562 16.7358Q38.3097 16.7928 38.269 16.854Q38.2283 16.9153 38.1938 16.9803Q38.1593 17.0453 38.1312 17.1134Q38.1032 17.1815 38.082 17.252Q38.0607 17.3225 38.0464 17.3948Q38.0321 17.467 38.0249 17.5404Q38.0178 17.6137 38.0178 17.6874L38.0178 20.0253L29.9995 20.0253Z" fill-rule="evenodd"  fill="url(#linear_fill_33_40)" >
</path>
</g>
</g>
<path    stroke="rgba(36, 0, 120, 1)" stroke-width="3" stroke-linejoin="round" stroke-linecap="round"  d="M30.2587 33L34.0087 36.75L41.5087 29.25">
</path>
</g>
<defs>
<clipPath id="clip-path-72_6">
<path d="M0 60L60 60L60 0L0 0L0 60Z" fill="white"/>
</clipPath>
<linearGradient id="linear_fill_33_42" x1="6.564659118652344" y1="16.50146484375" x2="37.75762939453125" y2="44.25" gradientUnits="userSpaceOnUse">
<stop offset="0" stop-color="#7948EA"  />
<stop offset="1" stop-color="#2B0082"  />
</linearGradient>
<linearGradient id="linear_border_33_38_0" x1="28.508407592773438" y1="17.6875" x2="28.510665893554688" y2="23.1875" gradientUnits="userSpaceOnUse">
<stop offset="0" stop-color="#7948EA"  />
<stop offset="1" stop-color="#2B0082"  />
</linearGradient>
<linearGradient id="linear_border_33_39_0" x1="39.5084114074707" y1="17.6875" x2="39.51066970825195" y2="23.1875" gradientUnits="userSpaceOnUse">
<stop offset="0" stop-color="#FFFFFF"  />
<stop offset="1" stop-color="#300066"  />
</linearGradient>
<linearGradient id="linear_fill_33_40" x1="18.313003540039062" y1="16.18798828125" x2="47.20858383178711" y2="43.8125" gradientUnits="userSpaceOnUse">
<stop offset="0" stop-color="#7948EA"  />
<stop offset="1" stop-color="#2B0082"  />
</linearGradient>
<filter id="filter_33_40" x="-4.19140625" y="2.1875" width="66.39998626708984" height="67.62451171875" filterUnits="userSpaceOnUse" color-interpolation-filters="sRGB">
<feFlood flood-opacity="0" result="feFloodId_33_40"/>
<feGaussianBlur in="feFloodId_33_40" stdDeviation_bg="1.5" type="BackgroundImage" />
<feComposite in2="SourceAlpha" operator="in" result="background_Blur_33_40"/>
<feColorMatrix in="SourceAlpha" type="matrix" values="0 0 0 0 0 0 0 0 0 0 0 0 0 0 0 0 0 0 127 0" result="hardAlpha_33_40"/>
<feOffset dx="-5" dy="6"/>
<feGaussianBlur stdDeviation="10"/>
<feComposite in2="hardAlpha_33_40" operator="out"/>
<feColorMatrix type="matrix" values="0 0 0 0 0.2 0 0 0 0 0.00392156862745098 0 0 0 0 0.47058823529411764 0 0 0 0.7 0"/>
<feBlend mode="normal" in2="feFloodId_33_40" result="dropShadow_1_33_40"/>
<feBlend mode="normal" in="SourceGraphic" in2="background_Blur_33_40" result="shape_33_40"/>
<feBlend mode="normal" in="SourceGraphic" in2="dropShadow_1_33_40" result="shape_33_40"/>
</filter>
</defs>
</svg>
