<svg xmlns="http://www.w3.org/2000/svg" xmlns:xlink="http://www.w3.org/1999/xlink" width="60" height="60" viewBox="0 0 60 60" fill="none">
<g  clip-path="url(#clip-path-72_3)">
<rect  x="0" y="0" width="60" height="60" rx="30"    fill="#FFFFFF" fill-opacity="100">
</rect>
<path d="M30.6104 43.7017C31.3398 43.3145 30.814 40.9685 31.431 40.4661C32.0666 39.9487 33.8414 41.2716 34.351 40.6538C34.8695 40.0251 33.7122 38.4617 34.0931 37.7524C34.4771 37.0375 36.3981 37.1761 36.635 36.403C36.8719 35.63 34.6532 34.6191 34.7358 33.8118C34.8177 33.0108 37.202 32.4136 37.1247 31.6024C37.0488 30.8051 34.2937 30.6257 34.0572 29.8409C33.8276 29.0791 36.1212 27.7113 35.734 26.9819C35.3468 26.2526 32.9205 26.6271 32.4182 26.0101C31.9006 25.3745 33.3039 23.7509 32.686 23.2413C32.0574 22.7228 30.2269 24.3631 29.5175 23.9822C28.8026 23.5983 29.2083 21.1942 28.4352 20.9573C27.6622 20.7204 26.5391 22.7276 25.7318 22.6451C24.9308 22.5632 24.4459 20.3903 23.6346 20.4676C22.8374 20.5435 22.4946 22.7436 21.7098 22.9801C20.948 23.2097 19.7436 21.471 19.0142 21.8582C18.2848 22.2454 18.9725 24.2585 18.3556 24.7608C17.7199 25.2783 15.7833 24.2883 15.2737 24.9062C14.7552 25.5348 16.1786 26.9569 15.7977 27.6662C15.4138 28.3812 13.2266 28.3839 12.9896 29.157C12.7527 29.93 15.0745 30.8862 14.992 31.6934C14.9101 32.4944 12.4227 33.1464 12.5 33.9576C12.5759 34.7549 14.8353 34.7441 15.0718 35.5288C15.3014 36.2906 13.5034 37.8487 13.8906 38.578C14.2778 39.3074 16.6867 38.4426 17.1891 39.0596C17.7066 39.6952 16.3208 41.8091 16.9387 42.3187C17.5673 42.8372 19.357 41.2185 20.0663 41.5994C20.7812 41.9834 20.4164 44.3658 21.1894 44.6027C21.9625 44.8396 23.0286 42.7251 23.8359 42.8076C24.6369 42.8896 25.1788 45.1697 25.99 45.0924C26.7873 45.0165 26.95 42.6649 27.7348 42.4283C28.4966 42.1988 29.881 44.089 30.6104 43.7017Z" fill-rule="evenodd"  fill="url(#linear_fill_39_5)" >
</path>
<g opacity="0.6">
<g filter="url(#filter_z0OHCjBOkLyPSuun6dR8q)">
<path d="M34.8951 44.7806C35.8895 44.7806 36.655 41.9885 37.5948 41.8026C38.5631 41.6111 39.7038 44.0203 40.5946 43.6509C41.5011 43.275 41.1529 40.9587 41.9586 40.4194C42.7706 39.8757 44.7356 41.1078 45.4241 40.4194C46.1125 39.7309 44.3235 37.403 44.8672 36.5909C45.4066 35.7853 48.2797 36.4964 48.6556 35.5899C49.025 34.6991 46.1961 32.9526 46.3876 31.9843C46.5735 31.0445 49.7854 30.8848 49.7854 29.8903C49.7854 28.8959 46.9932 27.9243 46.8073 26.9844C46.6158 26.0161 49.025 25.0816 48.6556 24.1907C48.2797 23.2843 45.4066 23.9954 44.8672 23.1897C44.3235 22.3777 46.1125 20.0497 45.4241 19.3613C44.7356 18.6728 42.4078 20.1735 41.5957 19.63C40.79 19.0906 41.5011 16.5057 40.5946 16.1298C39.7038 15.7604 38.0969 17.9069 37.1286 17.7153C36.1887 17.5294 35.8895 15 34.8951 15C33.9006 15 33.4954 17.5294 32.5556 17.7153C31.5873 17.9069 30.0864 15.7604 29.1955 16.1298C28.2891 16.5057 29.0001 18.8219 28.1944 19.3613C27.3824 19.9049 25.0545 18.6728 24.366 19.3613C23.6776 20.0497 25.6071 22.3777 25.0635 23.1897C24.5241 23.9954 21.5104 23.2843 21.1345 24.1907C20.7651 25.0816 23.1744 26.3459 22.9828 27.3141C22.7969 28.254 20.0048 28.8959 20.0048 29.8903C20.0048 30.8848 23.0552 31.3251 23.2411 32.2649C23.4327 33.2332 20.7651 34.6991 21.1345 35.5899C21.5104 36.4964 24.3279 35.7853 24.8673 36.5909C25.4109 37.403 23.6776 39.7309 24.366 40.4194C25.0545 41.1078 27.3824 39.4609 28.1944 40.0045C29.0001 40.5439 28.2891 43.275 29.1955 43.6509C30.0864 44.0203 31.5873 41.6111 32.5556 41.8026C33.4954 41.9885 33.9006 44.7806 34.8951 44.7806Z" fill-rule="evenodd"  fill="url(#linear_fill_z0OHCjBOkLyPSuun6dR8q)" >
</path>
</g>
</g>
<path d="M29.3111 31.3788C30.3391 31.3788 31.1724 30.5456 31.1724 29.5175C31.1724 28.4896 30.3391 27.6562 29.3111 27.6562C28.2832 27.6562 27.4498 28.4896 27.4498 29.5175C27.4498 30.5456 28.2832 31.3788 29.3111 31.3788Z"   fill="#D43030" >
</path>
<path d="M38.6177 33.6124C40.2624 33.6124 41.5958 32.2791 41.5958 30.6343C41.5958 28.9896 40.2624 27.6562 38.6177 27.6562C36.973 27.6562 35.6396 28.9896 35.6396 30.6343C35.6396 32.2791 36.973 33.6124 38.6177 33.6124Z" stroke="rgba(212, 48, 48, 1)" stroke-width="3.9707487724178625" stroke-linejoin="round"  >
</path>
</g>
<defs>
<clipPath id="clip-path-72_3">
<path d="M0 60L60 60L60 0L0 0L0 60Z" fill="white"/>
</clipPath>
<linearGradient id="linear_fill_39_5" x1="10.216552734375" y1="26.52880859375" x2="44.73272705078125" y2="39.732421875" gradientUnits="userSpaceOnUse">
<stop offset="0" stop-color="#FF9494"  />
<stop offset="1" stop-color="#CC0000"  />
</linearGradient>
<linearGradient id="linear_fill_z0OHCjBOkLyPSuun6dR8q" x1="22.900634765625" y1="15" x2="52.1571044921875" y2="48.53271484375" gradientUnits="userSpaceOnUse">
<stop offset="0" stop-color="#FF9494"  />
<stop offset="1" stop-color="#CC0000"  />
</linearGradient>
<filter id="filter_z0OHCjBOkLyPSuun6dR8q" x="2.0047607421875" y="5" width="59.7806396484375" height="59.78076171875" filterUnits="userSpaceOnUse" color-interpolation-filters="sRGB">
<feFlood flood-opacity="0" result="feFloodId_z0OHCjBOkLyPSuun6dR8q"/>
<feGaussianBlur in="feFloodId_z0OHCjBOkLyPSuun6dR8q" stdDeviation_bg="1.9357400265537081" type="BackgroundImage" />
<feComposite in2="SourceAlpha" operator="in" result="background_Blur_z0OHCjBOkLyPSuun6dR8q"/>
<feColorMatrix in="SourceAlpha" type="matrix" values="0 0 0 0 0 0 0 0 0 0 0 0 0 0 0 0 0 0 127 0" result="hardAlpha_z0OHCjBOkLyPSuun6dR8q"/>
<feOffset dx="-3" dy="5"/>
<feGaussianBlur stdDeviation="7.5"/>
<feComposite in2="hardAlpha_z0OHCjBOkLyPSuun6dR8q" operator="out"/>
<feColorMatrix type="matrix" values="0 0 0 0 0.8117647058823529 0 0 0 0 0 0 0 0 0 0 0 0 0 0.5 0"/>
<feBlend mode="normal" in2="feFloodId_z0OHCjBOkLyPSuun6dR8q" result="dropShadow_1_z0OHCjBOkLyPSuun6dR8q"/>
<feBlend mode="normal" in="SourceGraphic" in2="background_Blur_z0OHCjBOkLyPSuun6dR8q" result="shape_z0OHCjBOkLyPSuun6dR8q"/>
<feBlend mode="normal" in="SourceGraphic" in2="dropShadow_1_z0OHCjBOkLyPSuun6dR8q" result="shape_z0OHCjBOkLyPSuun6dR8q"/>
</filter>
</defs>
</svg>
