<svg xmlns="http://www.w3.org/2000/svg" xmlns:xlink="http://www.w3.org/1999/xlink" width="60" height="60" viewBox="0 0 60 60" fill="none">
<g  clip-path="url(#clip-path-72_2)">
<rect  x="0" y="0" width="60" height="60" rx="30"    fill="#FFFFFF" fill-opacity="100">
</rect>
<path d="M24.5634 43.4158C30.3975 43.4158 35.1269 38.6863 35.1269 32.8522C35.1269 27.0181 30.3975 22.2886 24.5634 22.2886C18.7292 22.2886 13.9998 27.0181 13.9998 32.8522C13.9998 38.6863 18.7292 43.4158 24.5634 43.4158Z"   fill="url(#linear_fill_68_37)" >
</path>
<g opacity="0.6">
<g filter="url(#filter_anxnqQut_Jou9yuMLJ5Iq)">
<path d="M32.8631 43.6666C40.503 43.6666 46.6964 37.4732 46.6964 29.8333C46.6964 22.1934 40.503 16 32.8631 16C25.2232 16 19.0298 22.1934 19.0298 29.8333C19.0298 37.4732 25.2232 43.6666 32.8631 43.6666Z"   fill="url(#linear_fill_anxnqQut_Jou9yuMLJ5Iq)" >
</path>
</g>
</g>
<path    stroke="rgba(169, 169, 169, 1)" stroke-width="1.5090855567746941" stroke-linejoin="round" stroke-linecap="round"  d="M29.8452 27.5703L35.8814 33.6066">
</path>
<path    stroke="rgba(169, 169, 169, 1)" stroke-width="1.5090855567746941" stroke-linejoin="round" stroke-linecap="round"  d="M35.8812 27.5703L29.845 33.6066">
</path>
</g>
<defs>
<clipPath id="clip-path-72_2">
<path d="M0 60L60 60L60 0L0 0L0 60Z" fill="white"/>
</clipPath>
<linearGradient id="linear_fill_68_37" x1="17.11749267578125" y1="22.28857421875" x2="32.1290283203125" y2="43.416015625" gradientUnits="userSpaceOnUse">
<stop offset="0" stop-color="#858585"  />
<stop offset="1" stop-color="#000000"  />
</linearGradient>
<linearGradient id="linear_fill_anxnqQut_Jou9yuMLJ5Iq" x1="23.112548828125" y1="16" x2="42.77044677734375" y2="43.66650390625" gradientUnits="userSpaceOnUse">
<stop offset="0" stop-color="#858585"  />
<stop offset="1" stop-color="#000000"  />
</linearGradient>
<filter id="filter_anxnqQut_Jou9yuMLJ5Iq" x="-18.97021484375" y="-5" width="89.66656494140625" height="89.66650390625" filterUnits="userSpaceOnUse" color-interpolation-filters="sRGB">
<feFlood flood-opacity="0" result="feFloodId_anxnqQut_Jou9yuMLJ5Iq"/>
<feGaussianBlur in="feFloodId_anxnqQut_Jou9yuMLJ5Iq" stdDeviation_bg="1.5090855567746941" type="BackgroundImage" />
<feComposite in2="SourceAlpha" operator="in" result="background_Blur_anxnqQut_Jou9yuMLJ5Iq"/>
<feColorMatrix in="SourceAlpha" type="matrix" values="0 0 0 0 0 0 0 0 0 0 0 0 0 0 0 0 0 0 127 0" result="hardAlpha_anxnqQut_Jou9yuMLJ5Iq"/>
<feOffset dx="-7" dy="10"/>
<feGaussianBlur stdDeviation="15.5"/>
<feComposite in2="hardAlpha_anxnqQut_Jou9yuMLJ5Iq" operator="out"/>
<feColorMatrix type="matrix" values="0 0 0 0 0 0 0 0 0 0 0 0 0 0 0 0 0 0 0.3 0"/>
<feBlend mode="normal" in2="feFloodId_anxnqQut_Jou9yuMLJ5Iq" result="dropShadow_1_anxnqQut_Jou9yuMLJ5Iq"/>
<feBlend mode="normal" in="SourceGraphic" in2="background_Blur_anxnqQut_Jou9yuMLJ5Iq" result="shape_anxnqQut_Jou9yuMLJ5Iq"/>
<feBlend mode="normal" in="SourceGraphic" in2="dropShadow_1_anxnqQut_Jou9yuMLJ5Iq" result="shape_anxnqQut_Jou9yuMLJ5Iq"/>
</filter>
</defs>
</svg>
