<svg xmlns="http://www.w3.org/2000/svg" xmlns:xlink="http://www.w3.org/1999/xlink" width="66.16034679878067" height="60" viewBox="0 0 66.16034679878067 60" fill="none">
<g  mask="url(#mask-grBcihKYQbRys-yDzb8Uf)">
<g filter="url(#filter___Pu7LD4A7QaU1oVmreWZ)">
<path d="M0 28.0488C0 12.5579 12.5585 0 28.0488 0L30.9756 0C47.0049 0 60 12.9947 60 29.0244L60 30.9756C60 47.0054 47.0049 60 30.9756 60L30 60C13.4317 60 0 46.5685 0 30L0 28.0488Z"   fill="url(#linear_fill_DEuPkldAEqwT1exqDVpDl)" >
</path>
</g>
</g>
<g  mask="url(#mask-grBcihKYQbRys-yDzb8Uf)">
<g filter="url(#filter_jggTcTAPshnwJHwHQurLn)">
<g  mask="url(#mask-WFipnnFrCx395BVgxaaJA)">
<path d="M17.6084 33.5365C16.2425 33.5365 15.5572 33.5365 14.7913 33.8829C13.7523 34.3529 12.6423 35.8804 12.5203 37.0153C12.4279 37.8512 12.5645 38.268 12.8377 39.1017C13.7035 41.7578 15.1886 44.2 17.2008 46.2126C20.5642 49.5746 25.1229 51.4634 29.8766 51.4634C34.6327 51.4634 39.1912 49.5746 42.5546 46.2126C44.6522 44.1151 46.1766 41.5512 47.0254 38.7644C47.279 37.9322 47.4059 37.5161 47.3107 36.7424C47.1766 35.6802 46.1473 34.2909 45.1717 33.8546C44.4595 33.5365 43.8058 33.5365 42.4985 33.5365L29.8766 33.5365L17.6084 33.5365L17.6084 33.5365Z"   fill="url(#linear_fill_IXkeKuXW64kyARAMZQ-pp)" >
</path>
</g>
</g>
<g filter="url(#filter_xaTLBN2znK9_j-LFDi_0K)">
<g  mask="url(#mask-WFipnnFrCx395BVgxaaJA)">
<path d="M12.551 34.5561C11.8729 33.0005 12.9656 31.2195 14.6632 31.2195L44.8218 31.2195C45.1901 31.2195 44.2703 31.2195 44.5194 31.2627C45.6728 31.4631 47.1681 34.0217 46.7755 35.1258C46.6925 35.3636 47.9438 33.1397 47.4438 34.0292L47.4438 34.0292L47.4438 34.0292C46.8072 35.1583 46.712 37.0731 45.4145 37.0731L13.6242 37.0731C12.6852 37.0731 12.9266 35.418 12.551 34.5561L12.551 34.5561L12.551 34.5561L12.551 34.5561Z"   fill="#FFFFFF" >
</path>
</g>
</g>
<g filter="url(#filter_9Nkxew0TU_lksmJIAfETb)">
<g  mask="url(#mask-WFipnnFrCx395BVgxaaJA)">
<ellipse cx="29.75634765625" cy="48.04877758026123" rx="7.0732421875" ry="5.6098127365112305"   fill="url(#linear_fill_OtegnOX-jU0qfZvjPSDGl)" >
</ellipse>
</g>
</g>
</g>
<g filter="url(#filter_gaIjbyQbEF9z1VLUBvuA3)">
<g  mask="url(#mask-grBcihKYQbRys-yDzb8Uf)">
<g filter="url(#filter_sn2T083GgAOrg5U2FULUz)">
<path d="M27.8926 10.9959C27.4804 10.0373 26.8853 9.1687 26.1415 8.4386C25.3975 7.70636 24.5194 7.12443 23.5584 6.72451C22.5585 6.30817 21.4878 6.09504 20.4072 6.09756C18.8902 6.09756 17.4097 6.51451 16.1219 7.30207C15.8146 7.49046 15.5219 7.69739 15.2463 7.92282C14.9683 7.69739 14.6755 7.49046 14.3682 7.30207C13.0829 6.51451 11.6024 6.09756 10.0853 6.09756C8.99266 6.09756 7.9341 6.30758 6.93407 6.72451C5.96825 7.12602 5.09505 7.70356 4.34875 8.4386C3.60484 9.16788 3.00973 10.0367 2.59749 10.9959C2.17066 11.9934 1.95117 13.0528 1.95117 14.143C1.95117 15.1715 2.16095 16.2432 2.57558 17.3334C2.92434 18.2445 3.42191 19.1896 4.05846 20.1439C5.06824 21.6542 6.45605 23.2293 8.18044 24.8261C11.0365 27.4729 13.8634 29.3012 13.9829 29.3753L14.7122 29.8449C15.0365 30.0517 15.4512 30.0517 15.7755 29.8449L16.5048 29.3753C16.6243 29.298 19.4487 27.4729 22.3073 24.8261C24.0316 23.2293 25.4195 21.6542 26.4292 20.1439C27.0658 19.1896 27.5658 18.2445 27.9121 17.3334C28.3268 16.2432 28.5365 15.1715 28.5365 14.143C28.539 13.0528 28.3219 11.9934 27.8926 10.9959L27.8926 10.9959L27.8926 10.9959Z"   fill="#FA043F" >
</path>
</g>
<g filter="url(#filter_bUsMCF0GHvxMB1Cjt-HpX)">
<ellipse cx="26.101605892181396" cy="18.536776542663574" transform="rotate(31.444424951911245 22.56494140625 10)" rx="3.5366644859313965" ry="8.536776542663574"   fill="#FFFFFF" fill-opacity="0.81">
</ellipse>
</g>
<g filter="url(#filter_gMoQfG06iqA-WB7jv8A8q)">
<path d="M57.649 10.9959C57.2368 10.0373 56.6417 9.1687 55.8978 8.4386C55.1538 7.70636 54.2758 7.12443 53.3148 6.72451C52.3149 6.30817 51.2441 6.09504 50.1636 6.09756C48.6441 6.09756 47.166 6.51451 45.8783 7.30207C45.5709 7.49046 45.2783 7.69739 45.0026 7.92282C44.7246 7.69739 44.4319 7.49046 44.1246 7.30207C42.8393 6.51451 41.3587 6.09756 39.8417 6.09756C38.749 6.09756 37.6904 6.30758 36.6905 6.72451C35.7246 7.12602 34.8538 7.70356 34.1051 8.4386C33.3611 9.16788 32.766 10.0367 32.3538 10.9959C31.927 11.9934 31.7075 13.0528 31.7075 14.143C31.7075 15.1715 31.9172 16.2432 32.3319 17.3334C32.6807 18.2445 33.1782 19.1896 33.8149 20.1439C34.8245 21.6542 36.2124 23.2293 37.9368 24.8261C40.7929 27.4729 43.6197 29.3012 43.7393 29.3753L44.4684 29.8449C44.7929 30.0517 45.2075 30.0517 45.532 29.8449L46.2612 29.3753C46.3807 29.298 49.2051 27.4729 52.0636 24.8261C53.788 23.2293 55.1759 21.6542 56.1856 20.1439C56.8222 19.1896 57.3222 18.2445 57.6685 17.3334C58.0831 16.2432 58.2929 15.1715 58.2929 14.143C58.2953 13.0528 58.0783 11.9934 57.649 10.9959L57.649 10.9959L57.649 10.9959Z"   fill="#FA043F" >
</path>
</g>
<g filter="url(#filter_tLmg2vrFUmRi3W40zEGNQ)">
<ellipse cx="55.8579535484314" cy="18.536776542663574" transform="rotate(31.444424951911245 52.3212890625 10)" rx="3.5366644859313965" ry="8.536776542663574"   fill="#FFFFFF" fill-opacity="0.81">
</ellipse>
</g>
</g>
</g>
<defs>
<mask id="mask-grBcihKYQbRys-yDzb8Uf" style="mask-type:alpha" maskUnits="userSpaceOnUse">
<rect x="0" y="0" width="60" height="60"   fill="#000000" >
</rect>
<rect x="0" y="0" width="60" height="60"   fill="#000000" >
</rect>
</mask>
<radialGradient id="linear_fill_DEuPkldAEqwT1exqDVpDl" cx="0" cy="0" r="1" gradientTransform="translate(26.58544921875 3.9024658203125) rotate(-183.48318829727293) scale(105.28646781974695, 56.20135672809814)" gradientUnits="userSpaceOnUse">
<stop offset="0" stop-color="#FFBB0C"  />
<stop offset="1" stop-color="#FFC907"  />
</radialGradient>
<filter id="filter___Pu7LD4A7QaU1oVmreWZ" x="0" y="0" width="60" height="60" filterUnits="userSpaceOnUse" color-interpolation-filters="sRGB">
<feFlood flood-opacity="0" result="feFloodId___Pu7LD4A7QaU1oVmreWZ"/>
<feBlend mode="normal" in="SourceGraphic" in2="feFloodId___Pu7LD4A7QaU1oVmreWZ" result="shape___Pu7LD4A7QaU1oVmreWZ"/>
<feColorMatrix in="SourceAlpha" type="matrix" values="0 0 0 0 0 0 0 0 0 0 0 0 0 0 0 0 0 0 127 0" result="hardAlpha___Pu7LD4A7QaU1oVmreWZ"/>
<feOffset dx="5.121951219512195" dy="3.1707317073170733"/>
<feGaussianBlur stdDeviation="5.853658536585366"/>
<feComposite in2="hardAlpha___Pu7LD4A7QaU1oVmreWZ" operator="arithmetic" k2="-1" k3="1"/>
<feColorMatrix type="matrix" values="0 0 0 0 0.6823529411764706 0 0 0 0 0.06666666666666667 0 0 0 0 0.7843137254901961 0 0 0 0.14 0"/>
<feBlend mode="normal" in2="shape___Pu7LD4A7QaU1oVmreWZ" result="innerShadow_0___Pu7LD4A7QaU1oVmreWZ" />
</filter>
<linearGradient id="linear_fill_OPOv81tdUhWacGiR44juC" x1="29.9169921875" y1="51.46337890625" x2="26.36083984375" y2="30.48779296875" gradientUnits="userSpaceOnUse">
<stop offset="0" stop-color="#FFFFFF"  />
<stop offset="1" stop-color="#FFFFFF"  />
</linearGradient>
<mask id="mask-WFipnnFrCx395BVgxaaJA" style="mask-type:alpha" maskUnits="userSpaceOnUse">
<path d="M17.6084 33.5365C16.2425 33.5365 15.5572 33.5365 14.7913 33.8829C13.7523 34.3529 12.6423 35.8804 12.5203 37.0153C12.4279 37.8512 12.5645 38.268 12.8377 39.1017C13.7035 41.7578 15.1886 44.2 17.2008 46.2126C20.5642 49.5746 25.1229 51.4634 29.8766 51.4634C34.6327 51.4634 39.1912 49.5746 42.5546 46.2126C44.6522 44.1151 46.1766 41.5512 47.0254 38.7644C47.279 37.9322 47.4059 37.5161 47.3107 36.7424C47.1766 35.6802 46.1473 34.2909 45.1717 33.8546C44.4595 33.5365 43.8058 33.5365 42.4985 33.5365L29.8766 33.5365L17.6084 33.5365L17.6084 33.5365Z"   fill="url(#linear_fill_OPOv81tdUhWacGiR44juC)" >
</path>
</mask>
<linearGradient id="linear_fill_IXkeKuXW64kyARAMZQ-pp" x1="29.9169921875" y1="51.46337890625" x2="19.24853515625" y2="28.2926025390625" gradientUnits="userSpaceOnUse">
<stop offset="0" stop-color="#3A2EC0"  />
<stop offset="1" stop-color="#FF20C1"  />
</linearGradient>
<filter id="filter_jggTcTAPshnwJHwHQurLn" x="12.4912109375" y="33.53662109375" width="34.8505859375" height="17.9268798828125" filterUnits="userSpaceOnUse" color-interpolation-filters="sRGB">
<feFlood flood-opacity="0" result="feFloodId_jggTcTAPshnwJHwHQurLn"/>
<feBlend mode="normal" in="SourceGraphic" in2="feFloodId_jggTcTAPshnwJHwHQurLn" result="shape_jggTcTAPshnwJHwHQurLn"/>
<feColorMatrix in="SourceAlpha" type="matrix" values="0 0 0 0 0 0 0 0 0 0 0 0 0 0 0 0 0 0 127 0" result="hardAlpha_jggTcTAPshnwJHwHQurLn"/>
<feOffset dx="0" dy="0.975609756097561"/>
<feGaussianBlur stdDeviation="1.951219512195122"/>
<feComposite in2="hardAlpha_jggTcTAPshnwJHwHQurLn" operator="arithmetic" k2="-1" k3="1"/>
<feColorMatrix type="matrix" values="0 0 0 0 0 0 0 0 0 0 0 0 0 0 0 0 0 0 0.25 0"/>
<feBlend mode="normal" in2="shape_jggTcTAPshnwJHwHQurLn" result="innerShadow_0_jggTcTAPshnwJHwHQurLn" />
</filter>
<filter id="filter_xaTLBN2znK9_j-LFDi_0K" x="12.34716796875" y="31.219482421875" width="35.21484375" height="5.8536376953125" filterUnits="userSpaceOnUse" color-interpolation-filters="sRGB">
<feFlood flood-opacity="0" result="feFloodId_xaTLBN2znK9_j-LFDi_0K"/>
<feBlend mode="normal" in="SourceGraphic" in2="feFloodId_xaTLBN2znK9_j-LFDi_0K" result="shape_xaTLBN2znK9_j-LFDi_0K"/>
<feColorMatrix in="SourceAlpha" type="matrix" values="0 0 0 0 0 0 0 0 0 0 0 0 0 0 0 0 0 0 127 0" result="hardAlpha_xaTLBN2znK9_j-LFDi_0K"/>
<feOffset dx="0" dy="-0.7317073170731707"/>
<feGaussianBlur stdDeviation="1.951219512195122"/>
<feComposite in2="hardAlpha_xaTLBN2znK9_j-LFDi_0K" operator="arithmetic" k2="-1" k3="1"/>
<feColorMatrix type="matrix" values="0 0 0 0 0 0 0 0 0 0 0 0 0 0 0 0 0 0 0.47 0"/>
<feBlend mode="normal" in2="shape_xaTLBN2znK9_j-LFDi_0K" result="innerShadow_0_xaTLBN2znK9_j-LFDi_0K" />
</filter>
<radialGradient id="linear_fill_OtegnOX-jU0qfZvjPSDGl" cx="0" cy="0" r="1" gradientTransform="translate(29.583829718641937 43.944036455681044) rotate(-181.0173921469323) scale(21.21597893061505, 9.716085588283107)" gradientUnits="userSpaceOnUse">
<stop offset="0" stop-color="#FC4141"  />
<stop offset="1" stop-color="#FF0F0F"  />
</radialGradient>
<filter id="filter_9Nkxew0TU_lksmJIAfETb" x="22.68310546875" y="42.43896484375" width="14.146484375" height="11.219482421875" filterUnits="userSpaceOnUse" color-interpolation-filters="sRGB">
<feFlood flood-opacity="0" result="feFloodId_9Nkxew0TU_lksmJIAfETb"/>
<feBlend mode="normal" in="SourceGraphic" in2="feFloodId_9Nkxew0TU_lksmJIAfETb" result="shape_9Nkxew0TU_lksmJIAfETb"/>
<feColorMatrix in="SourceAlpha" type="matrix" values="0 0 0 0 0 0 0 0 0 0 0 0 0 0 0 0 0 0 127 0" result="hardAlpha_9Nkxew0TU_lksmJIAfETb"/>
<feOffset dx="0" dy="0.975609756097561"/>
<feGaussianBlur stdDeviation="1.2195121951219512"/>
<feComposite in2="hardAlpha_9Nkxew0TU_lksmJIAfETb" operator="arithmetic" k2="-1" k3="1"/>
<feColorMatrix type="matrix" values="0 0 0 0 0 0 0 0 0 0 0 0 0 0 0 0 0 0 0.25 0"/>
<feBlend mode="normal" in2="shape_9Nkxew0TU_lksmJIAfETb" result="innerShadow_0_9Nkxew0TU_lksmJIAfETb" />
</filter>
<filter id="filter_sn2T083GgAOrg5U2FULUz" x="1.951171875" y="6.0975341796875" width="26.58544921875" height="23.9024658203125" filterUnits="userSpaceOnUse" color-interpolation-filters="sRGB">
<feFlood flood-opacity="0" result="feFloodId_sn2T083GgAOrg5U2FULUz"/>
<feBlend mode="normal" in="SourceGraphic" in2="feFloodId_sn2T083GgAOrg5U2FULUz" result="shape_sn2T083GgAOrg5U2FULUz"/>
<feColorMatrix in="SourceAlpha" type="matrix" values="0 0 0 0 0 0 0 0 0 0 0 0 0 0 0 0 0 0 127 0" result="hardAlpha_sn2T083GgAOrg5U2FULUz"/>
<feOffset dx="0.4878048780487805" dy="-2.4390243902439024"/>
<feGaussianBlur stdDeviation="2.8048780487804876"/>
<feComposite in2="hardAlpha_sn2T083GgAOrg5U2FULUz" operator="arithmetic" k2="-1" k3="1"/>
<feColorMatrix type="matrix" values="0 0 0 0 0.796078431372549 0 0 0 0 0.1607843137254902 0 0 0 0 0.8980392156862745 0 0 0 0.6 0"/>
<feBlend mode="normal" in2="shape_sn2T083GgAOrg5U2FULUz" result="innerShadow_0_sn2T083GgAOrg5U2FULUz" />
</filter>
<filter id="filter_bUsMCF0GHvxMB1Cjt-HpX" x="5.853813357469335" y="2.195121951219562" width="30.55067406631133" height="33.865493402248376" filterUnits="userSpaceOnUse" color-interpolation-filters="sRGB">
<feFlood flood-opacity="0" result="feFloodId_bUsMCF0GHvxMB1Cjt-HpX"/>
<feColorMatrix in="SourceAlpha" type="matrix" values="0 0 0 0 0 0 0 0 0 0 0 0 0 0 0 0 0 0 127 0" result="hardAlpha_bUsMCF0GHvxMB1Cjt-HpX"/>
<feOffset dx="NaN" dy="NaN"/>
<feComposite in2="hardAlpha_bUsMCF0GHvxMB1Cjt-HpX" operator="out"/>
<feColorMatrix type="matrix" values="0 0 0 0 0 0 0 0 0 0 0 0 0 0 0 0 0 0 0 0"/>
<feBlend mode="normal" in2="feFloodId_bUsMCF0GHvxMB1Cjt-HpX" result="dropShadow_1_bUsMCF0GHvxMB1Cjt-HpX"/>
<feBlend mode="normal" in="SourceGraphic" in2="dropShadow_1_bUsMCF0GHvxMB1Cjt-HpX" result="shape_bUsMCF0GHvxMB1Cjt-HpX"/>
<feGaussianBlur result="gaussian_blur_bUsMCF0GHvxMB1Cjt-HpX" stdDeviation="3.902439024390244"/>
</filter>
<filter id="filter_gMoQfG06iqA-WB7jv8A8q" x="31.70751953125" y="6.0975341796875" width="26.58544921875" height="23.9024658203125" filterUnits="userSpaceOnUse" color-interpolation-filters="sRGB">
<feFlood flood-opacity="0" result="feFloodId_gMoQfG06iqA-WB7jv8A8q"/>
<feBlend mode="normal" in="SourceGraphic" in2="feFloodId_gMoQfG06iqA-WB7jv8A8q" result="shape_gMoQfG06iqA-WB7jv8A8q"/>
<feColorMatrix in="SourceAlpha" type="matrix" values="0 0 0 0 0 0 0 0 0 0 0 0 0 0 0 0 0 0 127 0" result="hardAlpha_gMoQfG06iqA-WB7jv8A8q"/>
<feOffset dx="0.4878048780487805" dy="-2.4390243902439024"/>
<feGaussianBlur stdDeviation="2.8048780487804876"/>
<feComposite in2="hardAlpha_gMoQfG06iqA-WB7jv8A8q" operator="arithmetic" k2="-1" k3="1"/>
<feColorMatrix type="matrix" values="0 0 0 0 0.796078431372549 0 0 0 0 0.1607843137254902 0 0 0 0 0.8980392156862745 0 0 0 0.6 0"/>
<feBlend mode="normal" in2="shape_gMoQfG06iqA-WB7jv8A8q" result="innerShadow_0_gMoQfG06iqA-WB7jv8A8q" />
</filter>
<filter id="filter_tLmg2vrFUmRi3W40zEGNQ" x="35.609672732469335" y="2.195121951219562" width="30.55067406631133" height="33.865493402248376" filterUnits="userSpaceOnUse" color-interpolation-filters="sRGB">
<feFlood flood-opacity="0" result="feFloodId_tLmg2vrFUmRi3W40zEGNQ"/>
<feColorMatrix in="SourceAlpha" type="matrix" values="0 0 0 0 0 0 0 0 0 0 0 0 0 0 0 0 0 0 127 0" result="hardAlpha_tLmg2vrFUmRi3W40zEGNQ"/>
<feOffset dx="NaN" dy="NaN"/>
<feComposite in2="hardAlpha_tLmg2vrFUmRi3W40zEGNQ" operator="out"/>
<feColorMatrix type="matrix" values="0 0 0 0 0 0 0 0 0 0 0 0 0 0 0 0 0 0 0 0"/>
<feBlend mode="normal" in2="feFloodId_tLmg2vrFUmRi3W40zEGNQ" result="dropShadow_1_tLmg2vrFUmRi3W40zEGNQ"/>
<feBlend mode="normal" in="SourceGraphic" in2="dropShadow_1_tLmg2vrFUmRi3W40zEGNQ" result="shape_tLmg2vrFUmRi3W40zEGNQ"/>
<feGaussianBlur result="gaussian_blur_tLmg2vrFUmRi3W40zEGNQ" stdDeviation="3.902439024390244"/>
</filter>
<filter id="filter_gaIjbyQbEF9z1VLUBvuA3" x="-2.925412061737916" y="3.655824242568542" width="66.10033584222583" height="33.71276260003833" filterUnits="userSpaceOnUse" color-interpolation-filters="sRGB">
<feFlood flood-opacity="0" result="feFloodId_gaIjbyQbEF9z1VLUBvuA3"/>
<feColorMatrix in="SourceAlpha" type="matrix" values="0 0 0 0 0 0 0 0 0 0 0 0 0 0 0 0 0 0 127 0" result="hardAlpha_gaIjbyQbEF9z1VLUBvuA3"/>
<feOffset dx="0" dy="2.4390243902439024"/>
<feGaussianBlur stdDeviation="2.4390243902439024"/>
<feComposite in2="hardAlpha_gaIjbyQbEF9z1VLUBvuA3" operator="out"/>
<feColorMatrix type="matrix" values="0 0 0 0 0.8156862745098039 0 0 0 0 0.17254901960784313 0 0 0 0 0.4823529411764706 0 0 0 0.52 0"/>
<feBlend mode="normal" in2="feFloodId_gaIjbyQbEF9z1VLUBvuA3" result="dropShadow_1_gaIjbyQbEF9z1VLUBvuA3"/>
<feBlend mode="normal" in="SourceGraphic" in2="dropShadow_1_gaIjbyQbEF9z1VLUBvuA3" result="shape_gaIjbyQbEF9z1VLUBvuA3"/>
</filter>
</defs>
</svg>
