<svg xmlns="http://www.w3.org/2000/svg" xmlns:xlink="http://www.w3.org/1999/xlink" width="30.557999999999993" height="37.116000000001804" viewBox="0 0 30.557999999999993 37.116000000001804" fill="none">
<path d="M18 1.116L30 13.1159L30 32.9159C30 35.2357 28.1196 37.116 25.8 37.116L4.2 37.116C1.8804 37.116 0 35.2357 0 32.9159L0 5.31612C0 2.99628 1.8804 1.116 4.2 1.116L18 1.116Z"   fill="#E94848" >
</path>
<path   fill-rule="evenodd"  fill="#FFFFFF"  d="M19.8666 23.9197C18.7509 23.9197 17.3951 23.4208 16.4579 22.6656C15.1743 22.9706 13.8439 23.4786 12.5745 23.978C12.0238 25.0159 11.4056 26.1515 10.8814 26.7774C10.8727 26.7853 10.8638 26.7928 10.8546 26.7999C10.587 27.0734 10.2168 27.2164 9.83327 27.2164C9.04675 27.2164 8.39995 26.5696 8.39995 25.7831C8.39995 25.3948 8.55178 25.0324 8.81197 24.7663C8.82178 24.7538 8.83223 24.7418 8.84345 24.7305C9.55553 24.1564 10.7401 23.769 12.0684 23.2479C12.7173 21.9821 13.2248 20.482 13.6719 19.0822C13.0999 17.9413 12.5566 16.7276 12.5566 15.7497C12.5566 14.9632 13.2034 14.3164 13.9899 14.3164C14.7764 14.3164 15.4232 14.9632 15.4232 15.7497C15.4232 16.6584 14.9793 17.8304 14.5992 19.0016C15.1313 20.0057 15.8716 20.9505 16.6775 21.7071C17.6716 21.3725 18.9719 21.0531 19.8666 21.0531C20.6531 21.0531 21.2999 21.6999 21.2999 22.4864C21.2999 23.2729 20.6531 23.9197 19.8666 23.9197ZM14.0662 17.825C13.7097 16.9966 13.4167 16.2018 13.4167 15.7511C13.4167 15.4294 13.6683 15.1778 13.9901 15.1778C14.3118 15.1778 14.5634 15.4294 14.5634 15.7511C14.5634 16.1814 14.333 16.9734 14.0662 17.825ZM15.7235 21.9723C14.8735 22.2047 14.0434 22.5026 13.2241 22.8144C13.6198 21.9214 13.9366 20.9946 14.2364 20.0821C14.6675 20.7678 15.1724 21.4059 15.7235 21.9723ZM19.8666 23.0608C19.2207 23.0608 18.3027 22.7692 17.5688 22.362C18.4112 22.1238 19.3304 21.9141 19.8666 21.9141C20.1884 21.9141 20.44 22.1657 20.44 22.4874C20.44 22.8092 20.1884 23.0608 19.8666 23.0608ZM9.26005 25.7839C9.26005 25.6325 9.3244 25.4821 9.41234 25.3853C9.74858 25.1251 10.4801 24.8133 11.3115 24.4805C10.9084 25.2 10.5078 25.8715 10.2275 26.2094C10.1318 26.301 10.0045 26.3573 9.83338 26.3573C9.51163 26.3573 9.26005 26.1057 9.26005 25.7839Z">
</path>
<g filter="url(#filter_60_3256)">
<path d="M30 13.116L22.4122 13.116C20.0926 13.116 18 11.0234 18 8.70384L18 1.116L30 13.116Z"   fill="#FFFFFF" fill-opacity="0.4">
</path>
</g>
<defs>
<filter id="filter_60_3256" x="17.442000000000007" y="0" width="13.115999999999985" height="13.116000000001804" filterUnits="userSpaceOnUse" color-interpolation-filters="sRGB">
<feFlood flood-opacity="0" result="feFloodId_60_3256"/>
<feColorMatrix in="SourceAlpha" type="matrix" values="0 0 0 0 0 0 0 0 0 0 0 0 0 0 0 0 0 0 127 0" result="hardAlpha_60_3256"/>
<feOffset dx="0" dy="-0.558"/>
<feGaussianBlur stdDeviation="0.279"/>
<feComposite in2="hardAlpha_60_3256" operator="out"/>
<feColorMatrix type="matrix" values="0 0 0 0 0 0 0 0 0 0 0 0 0 0 0 0 0 0 0.09 0"/>
<feBlend mode="normal" in2="feFloodId_60_3256" result="dropShadow_1_60_3256"/>
<feBlend mode="normal" in="SourceGraphic" in2="dropShadow_1_60_3256" result="shape_60_3256"/>
</filter>
</defs>
</svg>
